<svg fill="#000000" xmlns="http://www.w3.org/2000/svg"  viewBox="0 0 50 50" width="50px" height="50px"><path d="M 20 2 A 1.0001 1.0001 0 0 0 19.154297 2.4667969 C 9.9452861 17.042872 4.0234375 44.789064 4.0234375 44.789062 A 1.0001 1.0001 0 0 0 4.2929688 45.707031 L 6.2929688 47.707031 A 1.0001 1.0001 0 0 0 6.8046875 47.980469 L 11.804688 48.980469 A 1.0001 1.0001 0 0 0 12.447266 48.894531 L 16.447266 46.894531 A 1.0001 1.0001 0 0 0 17 46 C 17 46 16.992 45.637709 17.234375 44.304688 C 17.465691 43.032449 17.93718 40.917771 18.841797 37.708984 C 21.147592 37.369493 23.607238 37.010768 26.121094 36.65625 C 28.759285 36.284197 29.142873 36.236121 31.21875 35.949219 C 32.993324 42.408434 33 46 33 46 A 1.0001 1.0001 0 0 0 33.552734 46.894531 L 37.552734 48.894531 A 1.0001 1.0001 0 0 0 38.195312 48.980469 L 43.195312 47.980469 A 1.0001 1.0001 0 0 0 43.707031 47.707031 L 45.707031 45.707031 A 1.0001 1.0001 0 0 0 45.980469 44.804688 C 45.980469 44.804688 44.474078 37.265759 41.835938 28.220703 C 39.197795 19.175645 35.476781 8.6350573 30.800781 2.4003906 A 1.0001 1.0001 0 0 0 30 2 L 20 2 z M 20.589844 4 L 29.445312 4 C 33.663337 9.8304396 37.353421 19.999954 39.914062 28.779297 C 42.387113 37.258324 43.757033 43.944735 43.90625 44.679688 L 42.695312 45.890625 C 42.082586 43.962171 39.571396 36.218143 35.990234 27.589844 A 1.0001 1.0001 0 0 0 35.042969 26.972656 A 1.0001 1.0001 0 0 0 34.693359 27.044922 A 1.0001 1.0001 0 0 0 34.6875 27.046875 C 24.134845 29.164297 17.351063 31.333126 14.214844 32.443359 C 14.449844 31.845688 14.76903 31.213183 15.013672 30.603516 L 32.40625 21.914062 L 32.419922 21.908203 L 32.447266 21.894531 A 1.0001 1.0001 0 0 0 32.810547 20.425781 C 30.62024 15.816901 28.245517 11.508228 25.785156 8.3808594 A 1.0001 1.0001 0 0 0 25.003906 8 A 1.0001 1.0001 0 0 0 24.214844 8.3808594 C 19.762753 14.040148 15.530312 23.569499 12.341797 31.738281 C 9.4442808 39.16154 7.6524805 44.810263 7.3105469 45.896484 L 6.1132812 44.699219 C 6.3061731 43.824301 12.079648 17.822699 20.589844 4 z M 24.994141 10.800781 C 26.908031 13.456877 28.823868 16.827162 30.632812 20.564453 L 28.845703 21.457031 C 27.908824 19.476165 26.926687 17.487105 25.882812 15.529297 A 1.0001 1.0001 0 0 0 24.980469 15 A 1.0001 1.0001 0 0 0 24.117188 15.529297 C 22.191158 19.140354 20.445401 22.856695 18.896484 26.427734 L 16.251953 27.748047 C 18.89505 21.455018 21.882843 15.127516 24.994141 10.800781 z M 25.017578 18.28125 C 25.71208 19.635892 26.399352 20.993946 27.052734 22.353516 L 21.722656 25.015625 C 22.751195 22.783526 23.870284 20.519337 25.017578 18.28125 z M 34.443359 29.150391 C 35.016107 30.549813 35.554307 31.916813 36.072266 33.257812 C 34.702189 33.444638 31.137326 33.928976 25.841797 34.675781 C 20.626289 35.411302 15.355289 36.172975 12.638672 36.636719 C 12.843529 36.081113 13.064701 35.499479 13.283203 34.919922 C 14.158638 34.568505 21.025411 31.889934 34.443359 29.150391 z M 36.802734 35.175781 C 38.894151 40.726098 40.283543 44.938411 40.763672 46.427734 L 38.681641 46.84375 C 38.366333 45.797638 37.091282 41.680744 34.746094 35.460938 C 35.232669 35.394275 36.593992 35.204267 36.802734 35.175781 z M 16.681641 38.025391 C 15.92236 40.791416 15.488588 42.719016 15.265625 43.945312 C 15.090777 44.906974 15.106505 45.052022 15.085938 45.339844 L 13.660156 46.052734 C 14.215957 44.298152 15.047501 41.782717 16.410156 38.066406 C 16.50945 38.051402 16.580352 38.040634 16.681641 38.025391 z M 14.160156 38.412109 C 12.493699 43.033182 11.603114 45.892126 11.316406 46.841797 L 9.2402344 46.427734 C 9.4905006 45.633787 10.307249 43.076312 11.837891 38.808594 C 12.304147 38.715843 13.108008 38.578679 14.160156 38.412109 z M 34.183594 39.705078 C 35.317744 42.877299 35.877137 44.594065 36.333984 46.048828 L 34.943359 45.353516 C 34.927263 44.801007 34.835032 42.908494 34.183594 39.705078 z"/></svg>